<svg xmlns="http://www.w3.org/2000/svg" viewBox="0 0 212.5 237.5"><path fill="#78C9E9" d="M99.684 18.451c4.017-.386 8.033.069 12.045.273 11.729 1.103 23.296 4.312 33.739 9.796 14.703 7.681 27.338 19.432 35.693 33.8 6.843 11.545 10.894 24.711 11.919 38.089.33 8.537.187 17.086.217 25.631-.004 21.133.004 42.266-.004 63.4-.274 6.214.148 12.458-.604 18.646-.27 2.506-.686 5.098-1.967 7.308-1.272 2.158-3.938 3.227-6.37 2.822-1.385-.391-2.531-1.324-3.59-2.258-5.411-5.158-9.284-11.779-15.185-16.447-2.28-1.729-5.35-3.257-8.22-2.085-4.073 1.637-6.674 5.385-9.396 8.632-3.469 4.213-6.769 8.989-11.863 11.351-3.183 1.528-7.069.942-9.857-1.142-6.014-4.455-9.131-11.676-14.963-16.327-2.966-2.383-7.056-3.646-10.786-2.496-3.27.859-5.762 3.344-7.833 5.892-2.831 3.578-4.994 7.656-8.055 11.056-1.694 1.881-3.904 3.387-6.426 3.839-2.948.396-5.823-.96-8.029-2.818-5.363-4.528-8.354-11.168-13.591-15.818-2.202-2.015-5.45-3.305-8.376-2.145-5.263 1.914-9.037 6.273-12.854 10.16-3.356 3.339-6.148 7.321-10.165 9.935-2.045 1.398-4.806.612-6.639-.786-2.123-1.736-2.931-4.524-3.539-7.091-1.203-5.936-1.116-12.019-1.138-18.046-.134-4.203-.191-8.41.008-12.613-.013-23.596-.004-47.191-.004-70.786-.704-24.433 9.787-48.85 27.664-65.462 10.638-9.991 23.721-17.413 37.838-21.164a92.653 92.653 0 0 1 20.331-3.146z"/><path fill="#FFF" d="M78.98 76.349a24.394 24.394 0 0 1 13.886 1.194c6.739 2.597 12.206 8.407 14.242 15.358 1.524 4.811 1.463 10.122-.143 14.907-2.449 7.92-9.379 14.181-17.46 15.944-2.254.426-4.524 1.063-6.835.777-3.339-.456-6.695-1.138-9.722-2.684-6.092-3.021-10.821-8.74-12.475-15.357-1.967-7.352-.425-15.723 4.477-21.62 3.509-4.35 8.533-7.442 14.03-8.519zM153.184 76.345c6.335-1.359 13.183.031 18.567 3.626 4.229 2.918 7.629 7.121 9.271 12.023 2.558 7.291 1.477 15.792-2.979 22.132-3.417 4.928-8.767 8.467-14.638 9.691-1.719.322-3.435.769-5.189.781-6.361-.338-12.84-2.592-17.316-7.277-4.703-4.472-6.957-10.972-7.208-17.355.313-5.827 2.258-11.707 6.266-16.058 3.451-3.855 8.154-6.538 13.226-7.563z"/><path fill="#053F82" d="M89.892 89.493c3.917-1.329 8.528-.283 11.45 2.657 3.383 3.304 4.273 8.806 2.115 13.014-1.502 2.987-4.39 5.297-7.694 5.931-3.639.851-7.686-.386-10.274-3.079-2.089-2.097-3.326-5.059-3.192-8.033-.121-4.654 3.21-9.057 7.595-10.49zM164.122 89.493c3.218-1.073 6.926-.608 9.739 1.298 2.345 1.515 4.004 3.994 4.681 6.691.973 3.965-.382 8.398-3.504 11.056-4.095 3.842-11.138 3.712-15.089-.274-3.07-2.792-4.151-7.352-3.04-11.294.999-3.465 3.774-6.374 7.213-7.477z"/></svg>